<?xml version="1.0" encoding="UTF-8" standalone="no"?>
<!-- Created with Inkscape (http://www.inkscape.org/) -->

<svg
   xmlns:osb="http://www.openswatchbook.org/uri/2009/osb"
   xmlns:dc="http://purl.org/dc/elements/1.1/"
   xmlns:cc="http://creativecommons.org/ns#"
   xmlns:rdf="http://www.w3.org/1999/02/22-rdf-syntax-ns#"
   xmlns:svg="http://www.w3.org/2000/svg"
   xmlns="http://www.w3.org/2000/svg"
   xmlns:sodipodi="http://sodipodi.sourceforge.net/DTD/sodipodi-0.dtd"
   xmlns:inkscape="http://www.inkscape.org/namespaces/inkscape"
   version="1.1"
   id="svg64"
   width="462.10349"
   height="384.55533"
   viewBox="0 0 462.10349 384.55533"
   sodipodi:docname="logo-words.svg"
   inkscape:version="0.92.5 (0.92.4+202005162354+6c0c36e)"
   inkscape:export-filename="/home/actumn/go/src/github.com/actumn/searchgoose/docs/images/logo-words.png"
   inkscape:export-xdpi="114.977"
   inkscape:export-ydpi="114.977">
  <metadata
     id="metadata70">
    <rdf:RDF>
      <cc:Work
         rdf:about="">
        <dc:format>image/svg+xml</dc:format>
        <dc:type
           rdf:resource="http://purl.org/dc/dcmitype/StillImage" />
        <dc:title />
      </cc:Work>
    </rdf:RDF>
  </metadata>
  <defs
     id="defs68">
    <linearGradient
       id="linearGradient6096"
       osb:paint="solid">
      <stop
         style="stop-color:#2fd7ff;stop-opacity:1;"
         offset="0"
         id="stop6094" />
    </linearGradient>
    <meshgradient
       inkscape:collect="always"
       id="meshgradient6122"
       gradientUnits="userSpaceOnUse"
       x="230.59624"
       y="156.31612"
       gradientTransform="matrix(0.63608582,0,0,0.70942571,-52.638793,-102.04383)">
      <meshrow
         id="meshrow6124">
        <meshpatch
           id="meshpatch6126">
          <stop
             path="c 154.035,0  308.069,0  462.104,0"
             style="stop-color:#ffffff;stop-opacity:1"
             id="stop6128" />
          <stop
             path="c 0,128.185  0,256.37  0,384.555"
             style="stop-color:#2fd7ff;stop-opacity:1"
             id="stop6130" />
          <stop
             path="c -154.035,0  -308.069,0  -462.104,0"
             style="stop-color:#ffffff;stop-opacity:1"
             id="stop6132" />
          <stop
             path="c 0,-128.185  0,-256.37  0,-384.555"
             style="stop-color:#2fd7ff;stop-opacity:1"
             id="stop6134" />
        </meshpatch>
      </meshrow>
    </meshgradient>
  </defs>
  <sodipodi:namedview
     pagecolor="#ffffff"
     bordercolor="#666666"
     borderopacity="1"
     objecttolerance="10"
     gridtolerance="10"
     guidetolerance="10"
     inkscape:pageopacity="0"
     inkscape:pageshadow="2"
     inkscape:window-width="1920"
     inkscape:window-height="960"
     id="namedview66"
     showgrid="false"
     inkscape:zoom="1.2782634"
     inkscape:cx="93.387469"
     inkscape:cy="293.11075"
     inkscape:window-x="0"
     inkscape:window-y="27"
     inkscape:window-maximized="1"
     inkscape:current-layer="svg64" />
  <path
     style="opacity:1;fill:url(#meshgradient6122);fill-opacity:1;stroke-width:0.67175561"
     d="m 193.47649,280.62462 c -6.36752,-1.28951 -15.547,-4.47769 -22.92094,-7.9608 -3.28406,-1.55125 -8.26094,-3.52913 -11.05972,-4.39532 -2.79877,-0.86618 -6.15105,-2.0466 -7.44949,-2.62315 -2.12169,-0.9421 -2.69179,-0.92567 -5.62838,0.16217 -2.46061,0.91151 -4.23389,1.08688 -7.18048,0.71013 -2.1521,-0.27518 -9.20832,-0.71033 -15.68049,-0.967 -9.49506,-0.37655 -11.73175,-0.65508 -11.58203,-1.44225 0.10206,-0.53657 -0.3235,-1.60294 -0.94568,-2.36971 -1.08615,-1.33856 -1.08237,-1.434 0.095,-2.3942 0.67445,-0.55003 1.74794,-1.00006 2.38551,-1.00006 0.63757,0 1.65626,-0.30857 2.26375,-0.68571 1.42959,-0.88751 8.16774,-3.66593 13.82623,-5.70114 2.44893,-0.88082 5.19681,-2.18605 6.10639,-2.90051 2.29441,-1.80224 8.15206,-3.4163 17.42879,-4.80246 2.44893,-0.36592 8.60306,-2.30265 13.67584,-4.30383 5.07278,-2.00117 9.72416,-3.49978 10.33639,-3.33022 0.83522,0.2313 1.1371,-0.16226 1.20908,-1.57624 0.16493,-3.2403 -0.18802,-6.10593 -0.86492,-7.02248 -0.39645,-0.5368 -0.47733,-2.43139 -0.20685,-4.84582 0.33618,-3.00091 0.2201,-4.25222 -0.47761,-5.1487 -1.24211,-1.59597 -1.87336,-6.69263 -1.10726,-8.93995 0.38138,-1.11877 0.39026,-1.82159 0.023,-1.82159 -1.06031,0 -1.99816,-2.75391 -1.38918,-4.0792 1.23859,-2.69549 1.44825,-5.14334 0.44053,-5.14334 -1.22474,0 -1.23929,-1.45447 -0.0323,-3.23418 1.05509,-1.55579 1.29662,-3.45652 0.35692,-2.80879 -0.33959,0.23407 -0.79697,-0.3722 -1.0164,-1.34729 -0.27523,-1.22301 0.0314,-2.447 0.98873,-3.94641 l 1.38768,-2.17353 -1.35814,-1.22656 -1.35815,-1.22656 2.00889,-3.38256 c 1.57399,-2.65026 1.84993,-3.5962 1.27458,-4.36938 -0.57744,-0.77599 -0.42583,-1.22779 0.70971,-2.11486 0.79422,-0.62043 1.69816,-1.12806 2.00875,-1.12806 0.66403,0 6.86621,-4.40273 6.60795,-4.69077 -0.0968,-0.10792 -1.94978,0.30212 -4.1178,0.91121 -2.16801,0.60909 -4.37843,0.92058 -4.91205,0.6922 -1.44164,-0.61699 -1.17414,-2.52776 0.46097,-3.29271 0.78715,-0.36825 2.28991,-1.5097 3.33945,-2.53657 l 1.90826,-1.86702 -2.37687,0.37972 c -1.81025,0.2892 -2.51971,0.095 -2.9761,-0.81452 -0.5502,-1.09651 -0.74611,-1.07095 -2.39378,0.31236 -1.48269,1.2448 -1.79744,2.04593 -1.81121,4.61015 -0.009,1.70695 -0.37509,4.0261 -0.81318,5.15367 -0.6708,1.72654 -0.63898,2.24431 0.20161,3.28022 0.90986,1.12131 0.88833,1.4419 -0.24346,3.62528 -1.14354,2.20603 -1.22969,3.63824 -1.09096,18.13553 0.115,12.01596 0.35495,16.01491 1.01408,16.9007 0.49316,0.66272 0.80311,2.4603 0.72276,4.19162 -0.0936,2.01736 0.18655,3.33419 0.83767,3.93688 1.36875,1.26693 1.2195,2.50626 -0.45283,3.76019 -0.78716,0.59022 -1.22343,1.31313 -0.9695,1.60648 0.25393,0.29334 0.89797,0.12953 1.43119,-0.36403 0.53323,-0.49356 0.9695,-0.61887 0.96948,-0.27845 -3e-5,1.18115 -4.70998,4.80166 -8.42184,6.47381 -5.03395,2.26774 -7.06258,1.97082 -7.48028,-1.09487 -0.21377,-1.56891 -0.83943,-2.62471 -1.90826,-3.22017 -1.07308,-0.59782 -1.59021,-1.47447 -1.59021,-2.69573 0,-0.9954 -0.37767,-2.31928 -0.83925,-2.94196 -0.65168,-0.87912 -0.67502,-1.47439 -0.10443,-2.66348 0.6697,-1.39562 0.60956,-1.48699 -0.67856,-1.03102 -1.27392,0.45095 -1.37191,0.31603 -0.99309,-1.36729 0.30047,-1.33524 0.14384,-1.98592 -0.54948,-2.28265 -1.66394,-0.71213 -1.067,-2.946 1.33275,-4.98742 1.26638,-1.07728 1.96082,-2.08573 1.5432,-2.24098 -0.41761,-0.15525 -1.86631,0.70991 -3.21933,1.92259 -2.51357,2.25286 -4.0676,2.74662 -4.75281,1.51011 -0.21174,-0.38212 -0.0863,-1.3173 0.27884,-2.07816 0.55525,-1.15712 0.31211,-1.71071 -1.48649,-3.38444 -1.18279,-1.10067 -2.33551,-2.96691 -2.5619,-4.14768 -0.23917,-1.24738 -1.00308,-2.4363 -1.82355,-2.8381 -1.10385,-0.54058 -1.36995,-1.18147 -1.21941,-2.93702 0.15044,-1.7545 -0.0953,-2.34747 -1.12396,-2.71157 -0.72408,-0.25632 -1.72807,-1.56462 -2.23111,-2.90736 -0.50303,-1.34273 -1.35688,-2.63061 -1.89745,-2.86197 -0.54061,-0.23135 -0.9829,-1.16574 -0.9829,-2.07643 0,-0.91069 -0.28624,-1.8531 -0.63608,-2.09425 -0.34985,-0.24115 -0.63609,-1.21982 -0.63609,-2.17483 0,-0.96009 -0.69905,-2.41429 -1.56359,-3.25267 -1.20745,-1.17091 -1.42477,-1.80557 -0.95413,-2.78637 0.81014,-1.6883 0.76935,-2.0728 -0.21989,-2.0728 -1.56061,0 -5.03409,-4.73992 -5.13642,-7.00917 -0.0537,-1.19097 -0.45081,-2.55928 -0.88245,-3.04069 -0.43165,-0.48142 -0.78481,-1.18536 -0.78481,-1.56433 0,-0.37897 -0.46407,-1.26096 -1.03127,-1.95997 -1.47533,-1.81819 -0.69383,-3.26134 2.24383,-4.14358 3.91858,-1.17682 3.79992,-2.14618 -0.2627,-2.14618 -4.40272,0 -5.31914,-0.52407 -7.67493,-4.38906 -1.02414,-1.68026 -2.79236,-4.43735 -3.92936,-6.12686 -1.13701,-1.68952 -2.06728,-3.37454 -2.06728,-3.74449 0,-0.36996 0.78715,-1.01659 1.74923,-1.43697 1.62773,-0.71123 1.66713,-0.82089 0.56718,-1.57865 -2.9227,-2.01347 -4.35293,-3.63424 -5.58626,-6.3305 -1.27142,-2.77954 -1.27879,-2.93765 -0.17872,-3.83479 0.63106,-0.51464 1.3789,-0.93571 1.66188,-0.93571 1.09862,0 0.44087,-1.48569 -0.91668,-2.07056 -1.88275,-0.81115 -3.8443,-3.27985 -5.45955,-6.87112 -1.52918,-3.39989 -0.99236,-4.53741 2.1413,-4.53741 3.07284,0 3.12154,-0.82116 0.14742,-2.4855 -1.95456,-1.09378 -3.19177,-2.49556 -4.42574,-5.01439 -2.478485,-5.059223 -2.366419,-5.551395 1.14189,-5.015083 l 2.92758,0.447534 -3.30359,-3.312684 c -1.816994,-1.821976 -3.563082,-3.975232 -3.880209,-4.78502 -0.317127,-0.809781 -0.924951,-2.015699 -1.350722,-2.679806 -1.092509,-1.704069 -0.405066,-2.121112 1.972585,-1.196695 1.124129,0.437056 2.157186,0.668272 2.295676,0.513809 0.1385,-0.154463 -1.373301,-1.68324 -3.359549,-3.397277 -1.986248,-1.714036 -3.274131,-3.241806 -2.86196,-3.395037 0.412165,-0.153229 3.102827,0.858869 5.979249,2.249102 2.87642,1.390226 5.34872,2.395127 5.494,2.233102 0.14527,-0.162026 -2.04622,-2.100156 -4.86998,-4.306959 -5.381361,-4.205586 -6.432626,-5.326379 -4.995975,-5.326379 1.353622,0 10.375085,5.063073 16.882535,9.474909 3.24839,2.202298 6.20207,4.004183 6.56375,4.004183 0.36167,0 -3.37521,-4.389572 -8.30419,-9.754606 -8.22982,-8.957891 -10.07264,-11.528169 -8.26537,-11.528169 1.3347,0 8.11846,5.708472 18.09354,15.225578 9.62747,9.185431 12.40368,11.577402 12.40368,10.686952 0,-0.212374 -1.86307,-3.109442 -4.14014,-6.437918 -2.27708,-3.328469 -5.23348,-8.51324 -6.56978,-11.521694 -2.8244,-6.358661 -4.48691,-13.279889 -3.46393,-14.420809 0.88374,-0.985633 2.79393,1.920692 7.51494,11.433871 7.25111,14.611492 12.82899,23.304354 20.28734,31.616826 3.8744,4.31808 8.61867,9.01041 10.54282,10.42739 5.17993,3.81457 22.65905,22.76914 23.19566,25.15364 0.42607,1.89332 0.47807,1.91625 1.34548,0.59321 0.49626,-0.75693 0.9023,-1.91461 0.9023,-2.57262 0,-0.65802 0.42935,-1.59382 0.95413,-2.07956 0.52477,-0.48573 0.95412,-1.77729 0.95412,-2.87013 0,-1.12973 0.75022,-2.98136 1.73887,-4.29178 1.15298,-1.52822 1.47446,-2.4031 0.95413,-2.59654 -1.32959,-0.4943 -0.86918,-2.28929 0.80548,-3.14029 1.92215,-0.97677 2.00711,-1.70043 0.31804,-2.70862 -0.6997,-0.41764 -1.27217,-1.36776 -1.27217,-2.11137 0,-0.74362 -0.28624,-1.54933 -0.63609,-1.79047 -0.78179,-0.53888 -0.83732,-3.37237 -0.0841,-4.29203 0.88604,-1.08184 1.34353,-5.01568 0.67059,-5.76621 -1.12133,-1.25062 -0.86811,-5.799739 0.41055,-7.375557 1.12951,-1.392 1.13579,-1.524145 0.10289,-2.168828 -0.84497,-0.527387 -1.09991,-1.638568 -1.09991,-4.793945 0,-3.717291 0.15449,-4.185938 1.62656,-4.933985 1.19941,-0.609503 1.97199,-0.620385 2.9419,-0.04143 0.98275,0.586596 1.69149,0.560581 2.80306,-0.102902 1.22319,-0.730106 1.97254,-0.687689 4.21407,0.238516 4.97514,2.055731 13.95616,4.888035 14.29638,4.508592 0.69009,-0.769663 -13.30038,-6.625022 -17.21566,-7.205176 -4.62628,-0.685539 -6.12197,-2.680118 -6.12197,-8.163997 0,-6.387562 0.51362,-7.079862 5.2526,-7.079862 3.7544,0 3.87013,-0.05122 2.51273,-1.111585 -2.75302,-2.150617 -4.0352,-8.587407 -2.74618,-13.786355 0.54187,-2.185514 2.48145,-2.607949 5.08359,-1.107187 1.05584,0.60895 2.52098,1.107187 3.25585,1.107187 1.31537,0 1.31217,-0.03583 -0.20517,-2.305634 -1.94954,-2.916343 -2.31885,-5.257348 -1.56748,-9.93606 0.76111,-4.739369 1.22704,-5.223686 3.55186,-3.692043 2.4236,1.596725 4.21586,0.959973 3.56436,-1.266339 -0.25748,-0.879837 -0.51957,-2.078568 -0.58243,-2.663844 -0.0628,-0.585277 -0.4939,-1.950715 -0.95786,-3.034306 -1.37749,-3.217175 -0.009,-3.914867 3.36051,-1.712781 1.53789,1.005185 3.1662,2.324866 3.61846,2.932631 0.94653,1.272007 1.93868,1.451982 1.93868,0.35167 0,-0.414341 -0.68508,-2.4096 -1.52239,-4.433911 -1.97229,-4.768199 -2.67457,-9.001244 -1.49335,-9.001244 1.37031,0 6.29266,3.818712 9.02863,7.004317 1.38293,1.610205 2.73366,2.927644 3.00162,2.927644 0.26797,0 -0.50432,-2.154881 -1.71619,-4.788624 -2.09309,-4.548838 -2.9968,-10.109316 -1.643,-10.109316 2.0071,0 7.39297,5.684961 12.70326,13.408713 3.2752,4.763737 6.0766,8.525609 6.22534,8.359724 0.14873,-0.165885 -0.70051,-2.657523 -1.88721,-5.536976 -4.02692,-9.77109 -4.34416,-10.821083 -4.70008,-15.555996 -0.26251,-3.492254 -0.13654,-4.882537 0.481,-5.3081924 3.66853,-2.5286984 21.21735,39.5346984 27.09038,64.9339124 2.1279,9.202568 2.20912,10.021323 2.07599,20.928062 -0.12464,10.212267 -0.008,11.635447 1.16073,14.188507 1.71461,3.74481 4.62648,14.12228 4.62648,16.48807 0,1.02938 0.33936,3.70408 0.75414,5.94378 0.71883,3.88146 0.64429,4.46494 -1.59146,12.45766 -4.10371,14.67056 -4.4456,17.61824 -4.51075,38.89077 -0.0679,22.18287 0.50865,27.1257 3.7104,31.80745 2.2305,3.26158 1.98361,3.15034 12.98764,5.85133 7.14637,1.75409 8.57451,1.88466 15.90215,1.45388 4.42785,-0.26031 10.05431,-0.90226 12.50324,-1.42654 17.0103,-3.64174 30.261,-7.13136 36.31492,-9.56369 13.75069,-5.52472 18.18436,-5.53906 24.65044,-0.0797 5.058,4.27048 11.28581,8.11781 14.81378,9.15143 5.90127,1.72896 4.79441,5.0167 -1.68895,5.0167 -1.97295,0 -6.71274,0.64406 -10.53286,1.43124 -3.82013,0.78719 -11.09615,1.74657 -16.16893,2.13197 -20.62194,1.56672 -36.62988,4.03816 -48.17464,7.43761 -7.05802,2.07829 -9.32725,3.30724 -17.83527,9.65904 -3.59474,2.68371 -6.66288,4.87946 -6.81809,4.87946 -0.15521,0 -2.22324,1.39877 -4.59562,3.10838 -2.37238,1.7096 -5.7446,3.89627 -7.49384,4.85926 -1.74924,0.96299 -6.47217,3.694 -10.49542,6.06892 -10.89863,6.43345 -22.23854,11.24567 -30.32954,12.87069 -23.2193,4.66343 -27.38011,5.02545 -36.50941,3.17663 z m 163.96319,-66.78821 c -0.9787,-1.09156 -1.07529,-1.09534 -1.07529,-0.0422 0,0.63637 0.3578,1.29957 0.79511,1.47375 1.29965,0.51768 1.43013,-0.14898 0.28018,-1.43152 z M 179.70293,156.51626 c 2.72892,-2.06816 3.01873,-2.79172 0.87817,-2.19253 -2.46399,0.68973 -2.44759,-0.33917 0.0484,-3.0371 2.21486,-2.39405 2.27233,-2.56221 0.94842,-2.77517 -1.53891,-0.24755 -1.78989,-1.55648 -0.72425,-3.77722 0.37679,-0.78521 0.49947,-1.96138 0.27261,-2.61371 -0.37696,-1.08401 -0.48687,-1.07331 -1.27746,0.12439 -0.47575,0.72075 -0.70683,1.77018 -0.51351,2.33206 0.19332,0.56188 -0.13837,1.62532 -0.73711,2.36319 -0.69607,0.85783 -0.93644,1.87629 -0.66661,2.82445 0.29458,1.03518 -0.0722,2.13784 -1.21484,3.6524 -1.78944,2.37181 -2.07487,3.87359 -0.84172,4.42854 1.27932,0.57574 1.34366,0.5534 3.82788,-1.3293 z m 36.40454,-64.886872 c -0.21622,-0.390185 -0.67936,-0.709426 -1.02921,-0.709426 -0.34984,0 -0.45918,0.319241 -0.24296,0.709426 0.21622,0.390184 0.67936,0.709425 1.0292,0.709425 0.34985,0 0.45919,-0.319241 0.24297,-0.709425 z m -8.58716,-20.57335 c 0,-0.390184 -1.16185,-0.709425 -2.58188,-0.709425 -1.55928,0 -2.42618,0.280982 -2.18876,0.709425 0.21622,0.390184 1.37806,0.709426 2.58188,0.709426 1.20382,0 2.18876,-0.319242 2.18876,-0.709426 z"
     id="path74"
     inkscape:connector-curvature="0"
     sodipodi:nodetypes="cccsccscccsccccccccsccscsccccccccscscccsccscsccccccccscccsccscccccccccccccccccscsccsccsccsccsccccsccsccscccsscsscccssssscscscsccccsssccccsccscssccccccsscccscsccccccscssscsscsscsccscscccscsccscsssscssscccscccccccsccscccccccscscsscss" />
  <flowRoot
     xml:space="preserve"
     id="flowRoot24"
     style="font-style:normal;font-weight:normal;font-size:40px;line-height:1.25;font-family:sans-serif;letter-spacing:0px;word-spacing:0px;fill:#72acbb;fill-opacity:1;stroke:none"
     transform="matrix(1.5520299,0,0,1.5520299,-663.66088,87.121214)"><flowRegion
       id="flowRegion26"
       style="fill:#72acbb;fill-opacity:1"><rect
         id="rect28"
         width="336.33203"
         height="91.827492"
         x="452.49936"
         y="128.98723"
         style="fill:#72acbb;fill-opacity:1" /></flowRegion><flowPara
       id="flowPara30"
       style="fill:#50a9bc;fill-opacity:1">searchgoose</flowPara></flowRoot></svg>
